M48
; DRILL file {KiCad 5.1.6} date Mon Nov  2 21:59:45 2020
; FORMAT={-:-/ absolute / metric / decimal}
; #@! TF.CreationDate,2020-11-02T21:59:45+01:00
; #@! TF.GenerationSoftware,Kicad,Pcbnew,5.1.6
; #@! TF.FileFunction,Plated,1,2,PTH
FMAT,2
METRIC
T1C0.400
T2C1.000
%
G90
G05
T1
X81.45Y-67.4
X81.45Y-69.4
X81.45Y-71.4
X81.45Y-73.4
X81.45Y-75.4
X81.45Y-77.4
X81.45Y-79.4
X81.45Y-81.4
T2
X85.25Y-65.0
X85.25Y-67.54
X85.25Y-70.08
X85.25Y-72.62
X85.25Y-75.16
X85.25Y-77.7
X85.25Y-80.24
X85.25Y-82.78
X87.79Y-65.0
X87.79Y-67.54
X87.79Y-70.08
X87.79Y-72.62
X87.79Y-75.16
X87.79Y-77.7
X87.79Y-80.24
X87.79Y-82.78
T0
M30
