G04 #@! TF.GenerationSoftware,KiCad,Pcbnew,5.1.6*
G04 #@! TF.CreationDate,2020-11-02T21:59:41+01:00*
G04 #@! TF.ProjectId,BL128128,424c3132-3831-4323-982e-6b696361645f,rev?*
G04 #@! TF.SameCoordinates,Original*
G04 #@! TF.FileFunction,Copper,L1,Top*
G04 #@! TF.FilePolarity,Positive*
%FSLAX46Y46*%
G04 Gerber Fmt 4.6, Leading zero omitted, Abs format (unit mm)*
G04 Created by KiCad (PCBNEW 5.1.6) date 2020-11-02 21:59:41*
%MOMM*%
%LPD*%
G01*
G04 APERTURE LIST*
G04 #@! TA.AperFunction,ComponentPad*
%ADD10R,1.700000X1.700000*%
G04 #@! TD*
G04 #@! TA.AperFunction,ComponentPad*
%ADD11O,1.700000X1.700000*%
G04 #@! TD*
G04 #@! TA.AperFunction,SMDPad,CuDef*
%ADD12R,2.000000X0.610000*%
G04 #@! TD*
G04 #@! TA.AperFunction,SMDPad,CuDef*
%ADD13R,3.600000X2.680000*%
G04 #@! TD*
G04 #@! TA.AperFunction,ViaPad*
%ADD14C,0.800000*%
G04 #@! TD*
G04 #@! TA.AperFunction,Conductor*
%ADD15C,0.400000*%
G04 #@! TD*
G04 #@! TA.AperFunction,Conductor*
%ADD16C,0.600000*%
G04 #@! TD*
G04 APERTURE END LIST*
D10*
X85250000Y-65000000D03*
D11*
X87790000Y-65000000D03*
X85250000Y-67540000D03*
X87790000Y-67540000D03*
X85250000Y-70080000D03*
X87790000Y-70080000D03*
X85250000Y-72620000D03*
X87790000Y-72620000D03*
X85250000Y-75160000D03*
X87790000Y-75160000D03*
X85250000Y-77700000D03*
X87790000Y-77700000D03*
X85250000Y-80240000D03*
X87790000Y-80240000D03*
X85250000Y-82780000D03*
X87790000Y-82780000D03*
D12*
X78050000Y-66375000D03*
X78050000Y-67375000D03*
X78050000Y-68375000D03*
X78050000Y-69375000D03*
X78050000Y-70375000D03*
X78050000Y-71375000D03*
X78050000Y-72375000D03*
X78050000Y-73375000D03*
X78050000Y-74375000D03*
X78050000Y-75375000D03*
X78050000Y-76375000D03*
X78050000Y-77375000D03*
X78050000Y-78375000D03*
X78050000Y-79375000D03*
X78050000Y-80375000D03*
X78050000Y-81375000D03*
D13*
X75250000Y-63385000D03*
X75250000Y-84365000D03*
D14*
X81450000Y-67400000D03*
X81450000Y-73400000D03*
X81450000Y-75400000D03*
X81450000Y-77400000D03*
X81450000Y-79400000D03*
X81450000Y-81400000D03*
X81450000Y-69400000D03*
X81450000Y-71400000D03*
D15*
X83875000Y-66375000D02*
X85250000Y-65000000D01*
X78050000Y-66375000D02*
X83875000Y-66375000D01*
X81425000Y-67375000D02*
X81450000Y-67400000D01*
X78050000Y-67375000D02*
X81425000Y-67375000D01*
X84415000Y-68375000D02*
X85250000Y-67540000D01*
X78050000Y-68375000D02*
X84415000Y-68375000D01*
X81425000Y-73375000D02*
X81450000Y-73400000D01*
X78050000Y-73375000D02*
X81425000Y-73375000D01*
D16*
X78875000Y-74375000D02*
X78939999Y-74310001D01*
X78050000Y-74375000D02*
X78875000Y-74375000D01*
D15*
X84465000Y-74375000D02*
X85250000Y-75160000D01*
X78050000Y-74375000D02*
X84465000Y-74375000D01*
X81425000Y-75375000D02*
X81450000Y-75400000D01*
X78050000Y-75375000D02*
X81425000Y-75375000D01*
X83925000Y-76375000D02*
X85250000Y-77700000D01*
X78050000Y-76375000D02*
X83925000Y-76375000D01*
X81425000Y-77375000D02*
X81450000Y-77400000D01*
X78050000Y-77375000D02*
X81425000Y-77375000D01*
X83385000Y-78375000D02*
X78050000Y-78375000D01*
X85250000Y-80240000D02*
X83385000Y-78375000D01*
X81425000Y-79375000D02*
X81450000Y-79400000D01*
X78050000Y-79375000D02*
X81425000Y-79375000D01*
X82845000Y-80375000D02*
X85250000Y-82780000D01*
X78050000Y-80375000D02*
X82845000Y-80375000D01*
X81425000Y-81375000D02*
X81450000Y-81400000D01*
X78050000Y-81375000D02*
X81425000Y-81375000D01*
X81425000Y-69375000D02*
X81450000Y-69400000D01*
X78050000Y-69375000D02*
X81425000Y-69375000D01*
X84955000Y-70375000D02*
X85250000Y-70080000D01*
X78050000Y-70375000D02*
X84955000Y-70375000D01*
X81425000Y-71375000D02*
X81450000Y-71400000D01*
X78050000Y-71375000D02*
X81425000Y-71375000D01*
X85005000Y-72375000D02*
X85250000Y-72620000D01*
X78050000Y-72375000D02*
X85005000Y-72375000D01*
M02*
