G04 #@! TF.GenerationSoftware,KiCad,Pcbnew,5.1.6*
G04 #@! TF.CreationDate,2020-11-02T21:59:41+01:00*
G04 #@! TF.ProjectId,BL128128,424c3132-3831-4323-982e-6b696361645f,rev?*
G04 #@! TF.SameCoordinates,Original*
G04 #@! TF.FileFunction,Legend,Bot*
G04 #@! TF.FilePolarity,Positive*
%FSLAX46Y46*%
G04 Gerber Fmt 4.6, Leading zero omitted, Abs format (unit mm)*
G04 Created by KiCad (PCBNEW 5.1.6) date 2020-11-02 21:59:41*
%MOMM*%
%LPD*%
G01*
G04 APERTURE LIST*
%ADD10C,0.100000*%
%ADD11C,0.120000*%
G04 APERTURE END LIST*
D10*
X70816666Y-70950000D02*
X70116666Y-70950000D01*
X70116666Y-71216666D01*
X70150000Y-71283333D01*
X70183333Y-71316666D01*
X70250000Y-71350000D01*
X70350000Y-71350000D01*
X70416666Y-71316666D01*
X70450000Y-71283333D01*
X70483333Y-71216666D01*
X70483333Y-70950000D01*
X70816666Y-71650000D02*
X70350000Y-71650000D01*
X70116666Y-71650000D02*
X70150000Y-71616666D01*
X70183333Y-71650000D01*
X70150000Y-71683333D01*
X70116666Y-71650000D01*
X70183333Y-71650000D01*
X70350000Y-71983333D02*
X70816666Y-71983333D01*
X70416666Y-71983333D02*
X70383333Y-72016666D01*
X70350000Y-72083333D01*
X70350000Y-72183333D01*
X70383333Y-72250000D01*
X70450000Y-72283333D01*
X70816666Y-72283333D01*
X70783333Y-72583333D02*
X70816666Y-72650000D01*
X70816666Y-72783333D01*
X70783333Y-72850000D01*
X70716666Y-72883333D01*
X70683333Y-72883333D01*
X70616666Y-72850000D01*
X70583333Y-72783333D01*
X70583333Y-72683333D01*
X70550000Y-72616666D01*
X70483333Y-72583333D01*
X70450000Y-72583333D01*
X70383333Y-72616666D01*
X70350000Y-72683333D01*
X70350000Y-72783333D01*
X70383333Y-72850000D01*
X70816666Y-73816666D02*
X70783333Y-73750000D01*
X70750000Y-73716666D01*
X70683333Y-73683333D01*
X70483333Y-73683333D01*
X70416666Y-73716666D01*
X70383333Y-73750000D01*
X70350000Y-73816666D01*
X70350000Y-73916666D01*
X70383333Y-73983333D01*
X70416666Y-74016666D01*
X70483333Y-74050000D01*
X70683333Y-74050000D01*
X70750000Y-74016666D01*
X70783333Y-73983333D01*
X70816666Y-73916666D01*
X70816666Y-73816666D01*
X70350000Y-74350000D02*
X70816666Y-74350000D01*
X70416666Y-74350000D02*
X70383333Y-74383333D01*
X70350000Y-74450000D01*
X70350000Y-74550000D01*
X70383333Y-74616666D01*
X70450000Y-74650000D01*
X70816666Y-74650000D01*
X70350000Y-75416666D02*
X70350000Y-75683333D01*
X70116666Y-75516666D02*
X70716666Y-75516666D01*
X70783333Y-75550000D01*
X70816666Y-75616666D01*
X70816666Y-75683333D01*
X70816666Y-76016666D02*
X70783333Y-75950000D01*
X70750000Y-75916666D01*
X70683333Y-75883333D01*
X70483333Y-75883333D01*
X70416666Y-75916666D01*
X70383333Y-75950000D01*
X70350000Y-76016666D01*
X70350000Y-76116666D01*
X70383333Y-76183333D01*
X70416666Y-76216666D01*
X70483333Y-76250000D01*
X70683333Y-76250000D01*
X70750000Y-76216666D01*
X70783333Y-76183333D01*
X70816666Y-76116666D01*
X70816666Y-76016666D01*
X70350000Y-76550000D02*
X71050000Y-76550000D01*
X70383333Y-76550000D02*
X70350000Y-76616666D01*
X70350000Y-76750000D01*
X70383333Y-76816666D01*
X70416666Y-76850000D01*
X70483333Y-76883333D01*
X70683333Y-76883333D01*
X70750000Y-76850000D01*
X70783333Y-76816666D01*
X70816666Y-76750000D01*
X70816666Y-76616666D01*
X70783333Y-76550000D01*
D11*
X73140000Y-62855000D02*
X72600000Y-62855000D01*
X72600000Y-62855000D02*
X72600000Y-61830000D01*
X72600000Y-61830000D02*
X71490000Y-61830000D01*
X71490000Y-61830000D02*
X71490000Y-85970000D01*
X71490000Y-85970000D02*
X72600000Y-85970000D01*
X72600000Y-85970000D02*
X72600000Y-84945000D01*
X72600000Y-84945000D02*
X73140000Y-84945000D01*
X77110000Y-82790000D02*
X77110000Y-81965000D01*
X77110000Y-81965000D02*
X78910000Y-81965000D01*
X77110000Y-65835000D02*
X77110000Y-65010000D01*
M02*
