G04 #@! TF.GenerationSoftware,KiCad,Pcbnew,5.1.6*
G04 #@! TF.CreationDate,2020-11-02T21:59:41+01:00*
G04 #@! TF.ProjectId,BL128128,424c3132-3831-4323-982e-6b696361645f,rev?*
G04 #@! TF.SameCoordinates,Original*
G04 #@! TF.FileFunction,Legend,Top*
G04 #@! TF.FilePolarity,Positive*
%FSLAX46Y46*%
G04 Gerber Fmt 4.6, Leading zero omitted, Abs format (unit mm)*
G04 Created by KiCad (PCBNEW 5.1.6) date 2020-11-02 21:59:41*
%MOMM*%
%LPD*%
G01*
G04 APERTURE LIST*
%ADD10C,0.100000*%
%ADD11C,0.120000*%
G04 APERTURE END LIST*
D10*
X70816666Y-78916666D02*
X70116666Y-78916666D01*
X70116666Y-78650000D01*
X70150000Y-78583333D01*
X70183333Y-78550000D01*
X70250000Y-78516666D01*
X70350000Y-78516666D01*
X70416666Y-78550000D01*
X70450000Y-78583333D01*
X70483333Y-78650000D01*
X70483333Y-78916666D01*
X70816666Y-78216666D02*
X70350000Y-78216666D01*
X70116666Y-78216666D02*
X70150000Y-78250000D01*
X70183333Y-78216666D01*
X70150000Y-78183333D01*
X70116666Y-78216666D01*
X70183333Y-78216666D01*
X70350000Y-77883333D02*
X70816666Y-77883333D01*
X70416666Y-77883333D02*
X70383333Y-77850000D01*
X70350000Y-77783333D01*
X70350000Y-77683333D01*
X70383333Y-77616666D01*
X70450000Y-77583333D01*
X70816666Y-77583333D01*
X70783333Y-77283333D02*
X70816666Y-77216666D01*
X70816666Y-77083333D01*
X70783333Y-77016666D01*
X70716666Y-76983333D01*
X70683333Y-76983333D01*
X70616666Y-77016666D01*
X70583333Y-77083333D01*
X70583333Y-77183333D01*
X70550000Y-77250000D01*
X70483333Y-77283333D01*
X70450000Y-77283333D01*
X70383333Y-77250000D01*
X70350000Y-77183333D01*
X70350000Y-77083333D01*
X70383333Y-77016666D01*
X70816666Y-76050000D02*
X70783333Y-76116666D01*
X70750000Y-76150000D01*
X70683333Y-76183333D01*
X70483333Y-76183333D01*
X70416666Y-76150000D01*
X70383333Y-76116666D01*
X70350000Y-76050000D01*
X70350000Y-75950000D01*
X70383333Y-75883333D01*
X70416666Y-75850000D01*
X70483333Y-75816666D01*
X70683333Y-75816666D01*
X70750000Y-75850000D01*
X70783333Y-75883333D01*
X70816666Y-75950000D01*
X70816666Y-76050000D01*
X70350000Y-75516666D02*
X70816666Y-75516666D01*
X70416666Y-75516666D02*
X70383333Y-75483333D01*
X70350000Y-75416666D01*
X70350000Y-75316666D01*
X70383333Y-75250000D01*
X70450000Y-75216666D01*
X70816666Y-75216666D01*
X70350000Y-74450000D02*
X70350000Y-74183333D01*
X70116666Y-74350000D02*
X70716666Y-74350000D01*
X70783333Y-74316666D01*
X70816666Y-74250000D01*
X70816666Y-74183333D01*
X70816666Y-73950000D02*
X70116666Y-73950000D01*
X70816666Y-73650000D02*
X70450000Y-73650000D01*
X70383333Y-73683333D01*
X70350000Y-73750000D01*
X70350000Y-73850000D01*
X70383333Y-73916666D01*
X70416666Y-73950000D01*
X70783333Y-73050000D02*
X70816666Y-73116666D01*
X70816666Y-73250000D01*
X70783333Y-73316666D01*
X70716666Y-73350000D01*
X70450000Y-73350000D01*
X70383333Y-73316666D01*
X70350000Y-73250000D01*
X70350000Y-73116666D01*
X70383333Y-73050000D01*
X70450000Y-73016666D01*
X70516666Y-73016666D01*
X70583333Y-73350000D01*
X70816666Y-72183333D02*
X70116666Y-72183333D01*
X70383333Y-72183333D02*
X70350000Y-72116666D01*
X70350000Y-71983333D01*
X70383333Y-71916666D01*
X70416666Y-71883333D01*
X70483333Y-71850000D01*
X70683333Y-71850000D01*
X70750000Y-71883333D01*
X70783333Y-71916666D01*
X70816666Y-71983333D01*
X70816666Y-72116666D01*
X70783333Y-72183333D01*
X70816666Y-71450000D02*
X70783333Y-71516666D01*
X70750000Y-71550000D01*
X70683333Y-71583333D01*
X70483333Y-71583333D01*
X70416666Y-71550000D01*
X70383333Y-71516666D01*
X70350000Y-71450000D01*
X70350000Y-71350000D01*
X70383333Y-71283333D01*
X70416666Y-71250000D01*
X70483333Y-71216666D01*
X70683333Y-71216666D01*
X70750000Y-71250000D01*
X70783333Y-71283333D01*
X70816666Y-71350000D01*
X70816666Y-71450000D01*
X70350000Y-71016666D02*
X70350000Y-70750000D01*
X70116666Y-70916666D02*
X70716666Y-70916666D01*
X70783333Y-70883333D01*
X70816666Y-70816666D01*
X70816666Y-70750000D01*
X70350000Y-70616666D02*
X70350000Y-70350000D01*
X70116666Y-70516666D02*
X70716666Y-70516666D01*
X70783333Y-70483333D01*
X70816666Y-70416666D01*
X70816666Y-70350000D01*
X70816666Y-70016666D02*
X70783333Y-70083333D01*
X70750000Y-70116666D01*
X70683333Y-70150000D01*
X70483333Y-70150000D01*
X70416666Y-70116666D01*
X70383333Y-70083333D01*
X70350000Y-70016666D01*
X70350000Y-69916666D01*
X70383333Y-69850000D01*
X70416666Y-69816666D01*
X70483333Y-69783333D01*
X70683333Y-69783333D01*
X70750000Y-69816666D01*
X70783333Y-69850000D01*
X70816666Y-69916666D01*
X70816666Y-70016666D01*
X70816666Y-69483333D02*
X70350000Y-69483333D01*
X70416666Y-69483333D02*
X70383333Y-69450000D01*
X70350000Y-69383333D01*
X70350000Y-69283333D01*
X70383333Y-69216666D01*
X70450000Y-69183333D01*
X70816666Y-69183333D01*
X70450000Y-69183333D02*
X70383333Y-69150000D01*
X70350000Y-69083333D01*
X70350000Y-68983333D01*
X70383333Y-68916666D01*
X70450000Y-68883333D01*
X70816666Y-68883333D01*
X89783333Y-82200000D02*
X90483333Y-82200000D01*
X89783333Y-82600000D01*
X90483333Y-82600000D01*
X89850000Y-83333333D02*
X89816666Y-83300000D01*
X89783333Y-83200000D01*
X89783333Y-83133333D01*
X89816666Y-83033333D01*
X89883333Y-82966666D01*
X89950000Y-82933333D01*
X90083333Y-82900000D01*
X90183333Y-82900000D01*
X90316666Y-82933333D01*
X90383333Y-82966666D01*
X90450000Y-83033333D01*
X90483333Y-83133333D01*
X90483333Y-83200000D01*
X90450000Y-83300000D01*
X90416666Y-83333333D01*
X89783333Y-66350000D02*
X90483333Y-66350000D01*
X89783333Y-66750000D01*
X90483333Y-66750000D01*
X89783333Y-67483333D02*
X90116666Y-67250000D01*
X89783333Y-67083333D02*
X90483333Y-67083333D01*
X90483333Y-67350000D01*
X90450000Y-67416666D01*
X90416666Y-67450000D01*
X90350000Y-67483333D01*
X90250000Y-67483333D01*
X90183333Y-67450000D01*
X90150000Y-67416666D01*
X90116666Y-67350000D01*
X90116666Y-67083333D01*
X89816666Y-67750000D02*
X89783333Y-67850000D01*
X89783333Y-68016666D01*
X89816666Y-68083333D01*
X89850000Y-68116666D01*
X89916666Y-68150000D01*
X89983333Y-68150000D01*
X90050000Y-68116666D01*
X90083333Y-68083333D01*
X90116666Y-68016666D01*
X90150000Y-67883333D01*
X90183333Y-67816666D01*
X90216666Y-67783333D01*
X90283333Y-67750000D01*
X90350000Y-67750000D01*
X90416666Y-67783333D01*
X90450000Y-67816666D01*
X90483333Y-67883333D01*
X90483333Y-68050000D01*
X90450000Y-68150000D01*
X90483333Y-68350000D02*
X90483333Y-68750000D01*
X89783333Y-68550000D02*
X90483333Y-68550000D01*
X90483333Y-69350000D02*
X89783333Y-69516666D01*
X90283333Y-69650000D01*
X89783333Y-69783333D01*
X90483333Y-69950000D01*
X89783333Y-70616666D02*
X90116666Y-70383333D01*
X89783333Y-70216666D02*
X90483333Y-70216666D01*
X90483333Y-70483333D01*
X90450000Y-70550000D01*
X90416666Y-70583333D01*
X90350000Y-70616666D01*
X90250000Y-70616666D01*
X90183333Y-70583333D01*
X90150000Y-70550000D01*
X90116666Y-70483333D01*
X90116666Y-70216666D01*
X89783333Y-76633333D02*
X90483333Y-76633333D01*
X90483333Y-76800000D01*
X90450000Y-76900000D01*
X90383333Y-76966666D01*
X90316666Y-77000000D01*
X90183333Y-77033333D01*
X90083333Y-77033333D01*
X89950000Y-77000000D01*
X89883333Y-76966666D01*
X89816666Y-76900000D01*
X89783333Y-76800000D01*
X89783333Y-76633333D01*
X90150000Y-77566666D02*
X90116666Y-77666666D01*
X90083333Y-77700000D01*
X90016666Y-77733333D01*
X89916666Y-77733333D01*
X89850000Y-77700000D01*
X89816666Y-77666666D01*
X89783333Y-77600000D01*
X89783333Y-77333333D01*
X90483333Y-77333333D01*
X90483333Y-77566666D01*
X90450000Y-77633333D01*
X90416666Y-77666666D01*
X90350000Y-77700000D01*
X90283333Y-77700000D01*
X90216666Y-77666666D01*
X90183333Y-77633333D01*
X90150000Y-77566666D01*
X90150000Y-77333333D01*
X90250000Y-78333333D02*
X89783333Y-78333333D01*
X90516666Y-78166666D02*
X90016666Y-78000000D01*
X90016666Y-78433333D01*
X89783333Y-79383333D02*
X90483333Y-79383333D01*
X90483333Y-79550000D01*
X90450000Y-79650000D01*
X90383333Y-79716666D01*
X90316666Y-79750000D01*
X90183333Y-79783333D01*
X90083333Y-79783333D01*
X89950000Y-79750000D01*
X89883333Y-79716666D01*
X89816666Y-79650000D01*
X89783333Y-79550000D01*
X89783333Y-79383333D01*
X90150000Y-80316666D02*
X90116666Y-80416666D01*
X90083333Y-80450000D01*
X90016666Y-80483333D01*
X89916666Y-80483333D01*
X89850000Y-80450000D01*
X89816666Y-80416666D01*
X89783333Y-80350000D01*
X89783333Y-80083333D01*
X90483333Y-80083333D01*
X90483333Y-80316666D01*
X90450000Y-80383333D01*
X90416666Y-80416666D01*
X90350000Y-80450000D01*
X90283333Y-80450000D01*
X90216666Y-80416666D01*
X90183333Y-80383333D01*
X90150000Y-80316666D01*
X90150000Y-80083333D01*
X90483333Y-81083333D02*
X90483333Y-80950000D01*
X90450000Y-80883333D01*
X90416666Y-80850000D01*
X90316666Y-80783333D01*
X90183333Y-80750000D01*
X89916666Y-80750000D01*
X89850000Y-80783333D01*
X89816666Y-80816666D01*
X89783333Y-80883333D01*
X89783333Y-81016666D01*
X89816666Y-81083333D01*
X89850000Y-81116666D01*
X89916666Y-81150000D01*
X90083333Y-81150000D01*
X90150000Y-81116666D01*
X90183333Y-81083333D01*
X90216666Y-81016666D01*
X90216666Y-80883333D01*
X90183333Y-80816666D01*
X90150000Y-80783333D01*
X90083333Y-80750000D01*
X89783333Y-74383333D02*
X90483333Y-74383333D01*
X90483333Y-74550000D01*
X90450000Y-74650000D01*
X90383333Y-74716666D01*
X90316666Y-74750000D01*
X90183333Y-74783333D01*
X90083333Y-74783333D01*
X89950000Y-74750000D01*
X89883333Y-74716666D01*
X89816666Y-74650000D01*
X89783333Y-74550000D01*
X89783333Y-74383333D01*
X90150000Y-75316666D02*
X90116666Y-75416666D01*
X90083333Y-75450000D01*
X90016666Y-75483333D01*
X89916666Y-75483333D01*
X89850000Y-75450000D01*
X89816666Y-75416666D01*
X89783333Y-75350000D01*
X89783333Y-75083333D01*
X90483333Y-75083333D01*
X90483333Y-75316666D01*
X90450000Y-75383333D01*
X90416666Y-75416666D01*
X90350000Y-75450000D01*
X90283333Y-75450000D01*
X90216666Y-75416666D01*
X90183333Y-75383333D01*
X90150000Y-75316666D01*
X90150000Y-75083333D01*
X90416666Y-75750000D02*
X90450000Y-75783333D01*
X90483333Y-75850000D01*
X90483333Y-76016666D01*
X90450000Y-76083333D01*
X90416666Y-76116666D01*
X90350000Y-76150000D01*
X90283333Y-76150000D01*
X90183333Y-76116666D01*
X89783333Y-75716666D01*
X89783333Y-76150000D01*
X89783333Y-71883333D02*
X90483333Y-71883333D01*
X90483333Y-72050000D01*
X90450000Y-72150000D01*
X90383333Y-72216666D01*
X90316666Y-72250000D01*
X90183333Y-72283333D01*
X90083333Y-72283333D01*
X89950000Y-72250000D01*
X89883333Y-72216666D01*
X89816666Y-72150000D01*
X89783333Y-72050000D01*
X89783333Y-71883333D01*
X90150000Y-72816666D02*
X90116666Y-72916666D01*
X90083333Y-72950000D01*
X90016666Y-72983333D01*
X89916666Y-72983333D01*
X89850000Y-72950000D01*
X89816666Y-72916666D01*
X89783333Y-72850000D01*
X89783333Y-72583333D01*
X90483333Y-72583333D01*
X90483333Y-72816666D01*
X90450000Y-72883333D01*
X90416666Y-72916666D01*
X90350000Y-72950000D01*
X90283333Y-72950000D01*
X90216666Y-72916666D01*
X90183333Y-72883333D01*
X90150000Y-72816666D01*
X90150000Y-72583333D01*
X90483333Y-73416666D02*
X90483333Y-73483333D01*
X90450000Y-73550000D01*
X90416666Y-73583333D01*
X90350000Y-73616666D01*
X90216666Y-73650000D01*
X90050000Y-73650000D01*
X89916666Y-73616666D01*
X89850000Y-73583333D01*
X89816666Y-73550000D01*
X89783333Y-73483333D01*
X89783333Y-73416666D01*
X89816666Y-73350000D01*
X89850000Y-73316666D01*
X89916666Y-73283333D01*
X90050000Y-73250000D01*
X90216666Y-73250000D01*
X90350000Y-73283333D01*
X90416666Y-73316666D01*
X90450000Y-73350000D01*
X90483333Y-73416666D01*
X90483333Y-64133333D02*
X89783333Y-64366666D01*
X90483333Y-64600000D01*
X89783333Y-65133333D02*
X90483333Y-65133333D01*
X89816666Y-65133333D02*
X89783333Y-65066666D01*
X89783333Y-64933333D01*
X89816666Y-64866666D01*
X89850000Y-64833333D01*
X89916666Y-64800000D01*
X90116666Y-64800000D01*
X90183333Y-64833333D01*
X90216666Y-64866666D01*
X90250000Y-64933333D01*
X90250000Y-65066666D01*
X90216666Y-65133333D01*
X89783333Y-65766666D02*
X90483333Y-65766666D01*
X89816666Y-65766666D02*
X89783333Y-65700000D01*
X89783333Y-65566666D01*
X89816666Y-65500000D01*
X89850000Y-65466666D01*
X89916666Y-65433333D01*
X90116666Y-65433333D01*
X90183333Y-65466666D01*
X90216666Y-65500000D01*
X90250000Y-65566666D01*
X90250000Y-65700000D01*
X90216666Y-65766666D01*
X83216666Y-83616666D02*
X82516666Y-83616666D01*
X82516666Y-83450000D01*
X82550000Y-83350000D01*
X82616666Y-83283333D01*
X82683333Y-83250000D01*
X82816666Y-83216666D01*
X82916666Y-83216666D01*
X83050000Y-83250000D01*
X83116666Y-83283333D01*
X83183333Y-83350000D01*
X83216666Y-83450000D01*
X83216666Y-83616666D01*
X82850000Y-82683333D02*
X82883333Y-82583333D01*
X82916666Y-82550000D01*
X82983333Y-82516666D01*
X83083333Y-82516666D01*
X83150000Y-82550000D01*
X83183333Y-82583333D01*
X83216666Y-82650000D01*
X83216666Y-82916666D01*
X82516666Y-82916666D01*
X82516666Y-82683333D01*
X82550000Y-82616666D01*
X82583333Y-82583333D01*
X82650000Y-82550000D01*
X82716666Y-82550000D01*
X82783333Y-82583333D01*
X82816666Y-82616666D01*
X82850000Y-82683333D01*
X82850000Y-82916666D01*
X82516666Y-82283333D02*
X82516666Y-81816666D01*
X83216666Y-82116666D01*
X83216666Y-81116666D02*
X82516666Y-81116666D01*
X82516666Y-80950000D01*
X82550000Y-80850000D01*
X82616666Y-80783333D01*
X82683333Y-80750000D01*
X82816666Y-80716666D01*
X82916666Y-80716666D01*
X83050000Y-80750000D01*
X83116666Y-80783333D01*
X83183333Y-80850000D01*
X83216666Y-80950000D01*
X83216666Y-81116666D01*
X82850000Y-80183333D02*
X82883333Y-80083333D01*
X82916666Y-80050000D01*
X82983333Y-80016666D01*
X83083333Y-80016666D01*
X83150000Y-80050000D01*
X83183333Y-80083333D01*
X83216666Y-80150000D01*
X83216666Y-80416666D01*
X82516666Y-80416666D01*
X82516666Y-80183333D01*
X82550000Y-80116666D01*
X82583333Y-80083333D01*
X82650000Y-80050000D01*
X82716666Y-80050000D01*
X82783333Y-80083333D01*
X82816666Y-80116666D01*
X82850000Y-80183333D01*
X82850000Y-80416666D01*
X82516666Y-79383333D02*
X82516666Y-79716666D01*
X82850000Y-79750000D01*
X82816666Y-79716666D01*
X82783333Y-79650000D01*
X82783333Y-79483333D01*
X82816666Y-79416666D01*
X82850000Y-79383333D01*
X82916666Y-79350000D01*
X83083333Y-79350000D01*
X83150000Y-79383333D01*
X83183333Y-79416666D01*
X83216666Y-79483333D01*
X83216666Y-79650000D01*
X83183333Y-79716666D01*
X83150000Y-79750000D01*
X83216666Y-78616666D02*
X82516666Y-78616666D01*
X82516666Y-78450000D01*
X82550000Y-78350000D01*
X82616666Y-78283333D01*
X82683333Y-78250000D01*
X82816666Y-78216666D01*
X82916666Y-78216666D01*
X83050000Y-78250000D01*
X83116666Y-78283333D01*
X83183333Y-78350000D01*
X83216666Y-78450000D01*
X83216666Y-78616666D01*
X82850000Y-77683333D02*
X82883333Y-77583333D01*
X82916666Y-77550000D01*
X82983333Y-77516666D01*
X83083333Y-77516666D01*
X83150000Y-77550000D01*
X83183333Y-77583333D01*
X83216666Y-77650000D01*
X83216666Y-77916666D01*
X82516666Y-77916666D01*
X82516666Y-77683333D01*
X82550000Y-77616666D01*
X82583333Y-77583333D01*
X82650000Y-77550000D01*
X82716666Y-77550000D01*
X82783333Y-77583333D01*
X82816666Y-77616666D01*
X82850000Y-77683333D01*
X82850000Y-77916666D01*
X82516666Y-77283333D02*
X82516666Y-76850000D01*
X82783333Y-77083333D01*
X82783333Y-76983333D01*
X82816666Y-76916666D01*
X82850000Y-76883333D01*
X82916666Y-76850000D01*
X83083333Y-76850000D01*
X83150000Y-76883333D01*
X83183333Y-76916666D01*
X83216666Y-76983333D01*
X83216666Y-77183333D01*
X83183333Y-77250000D01*
X83150000Y-77283333D01*
X83216666Y-75866666D02*
X82516666Y-75866666D01*
X82516666Y-75700000D01*
X82550000Y-75600000D01*
X82616666Y-75533333D01*
X82683333Y-75500000D01*
X82816666Y-75466666D01*
X82916666Y-75466666D01*
X83050000Y-75500000D01*
X83116666Y-75533333D01*
X83183333Y-75600000D01*
X83216666Y-75700000D01*
X83216666Y-75866666D01*
X82850000Y-74933333D02*
X82883333Y-74833333D01*
X82916666Y-74800000D01*
X82983333Y-74766666D01*
X83083333Y-74766666D01*
X83150000Y-74800000D01*
X83183333Y-74833333D01*
X83216666Y-74900000D01*
X83216666Y-75166666D01*
X82516666Y-75166666D01*
X82516666Y-74933333D01*
X82550000Y-74866666D01*
X82583333Y-74833333D01*
X82650000Y-74800000D01*
X82716666Y-74800000D01*
X82783333Y-74833333D01*
X82816666Y-74866666D01*
X82850000Y-74933333D01*
X82850000Y-75166666D01*
X83216666Y-74100000D02*
X83216666Y-74500000D01*
X83216666Y-74300000D02*
X82516666Y-74300000D01*
X82616666Y-74366666D01*
X82683333Y-74433333D01*
X82716666Y-74500000D01*
X83216666Y-72633333D02*
X82883333Y-72866666D01*
X83216666Y-73033333D02*
X82516666Y-73033333D01*
X82516666Y-72766666D01*
X82550000Y-72700000D01*
X82583333Y-72666666D01*
X82650000Y-72633333D01*
X82750000Y-72633333D01*
X82816666Y-72666666D01*
X82850000Y-72700000D01*
X82883333Y-72766666D01*
X82883333Y-73033333D01*
X83216666Y-72333333D02*
X82516666Y-72333333D01*
X82516666Y-72166666D01*
X82550000Y-72066666D01*
X82616666Y-72000000D01*
X82683333Y-71966666D01*
X82816666Y-71933333D01*
X82916666Y-71933333D01*
X83050000Y-71966666D01*
X83116666Y-72000000D01*
X83183333Y-72066666D01*
X83216666Y-72166666D01*
X83216666Y-72333333D01*
X83216666Y-70366666D02*
X82883333Y-70600000D01*
X83216666Y-70766666D02*
X82516666Y-70766666D01*
X82516666Y-70500000D01*
X82550000Y-70433333D01*
X82583333Y-70400000D01*
X82650000Y-70366666D01*
X82750000Y-70366666D01*
X82816666Y-70400000D01*
X82850000Y-70433333D01*
X82883333Y-70500000D01*
X82883333Y-70766666D01*
X83183333Y-70100000D02*
X83216666Y-70000000D01*
X83216666Y-69833333D01*
X83183333Y-69766666D01*
X83150000Y-69733333D01*
X83083333Y-69700000D01*
X83016666Y-69700000D01*
X82950000Y-69733333D01*
X82916666Y-69766666D01*
X82883333Y-69833333D01*
X82850000Y-69966666D01*
X82816666Y-70033333D01*
X82783333Y-70066666D01*
X82716666Y-70100000D01*
X82650000Y-70100000D01*
X82583333Y-70066666D01*
X82550000Y-70033333D01*
X82516666Y-69966666D01*
X82516666Y-69800000D01*
X82550000Y-69700000D01*
X83150000Y-67616666D02*
X83183333Y-67650000D01*
X83216666Y-67750000D01*
X83216666Y-67816666D01*
X83183333Y-67916666D01*
X83116666Y-67983333D01*
X83050000Y-68016666D01*
X82916666Y-68050000D01*
X82816666Y-68050000D01*
X82683333Y-68016666D01*
X82616666Y-67983333D01*
X82550000Y-67916666D01*
X82516666Y-67816666D01*
X82516666Y-67750000D01*
X82550000Y-67650000D01*
X82583333Y-67616666D01*
X83183333Y-67350000D02*
X83216666Y-67250000D01*
X83216666Y-67083333D01*
X83183333Y-67016666D01*
X83150000Y-66983333D01*
X83083333Y-66950000D01*
X83016666Y-66950000D01*
X82950000Y-66983333D01*
X82916666Y-67016666D01*
X82883333Y-67083333D01*
X82850000Y-67216666D01*
X82816666Y-67283333D01*
X82783333Y-67316666D01*
X82716666Y-67350000D01*
X82650000Y-67350000D01*
X82583333Y-67316666D01*
X82550000Y-67283333D01*
X82516666Y-67216666D01*
X82516666Y-67050000D01*
X82550000Y-66950000D01*
X82516666Y-65800000D02*
X83216666Y-65566666D01*
X82516666Y-65333333D01*
X83183333Y-65133333D02*
X83216666Y-65066666D01*
X83216666Y-64933333D01*
X83183333Y-64866666D01*
X83116666Y-64833333D01*
X83083333Y-64833333D01*
X83016666Y-64866666D01*
X82983333Y-64933333D01*
X82983333Y-65033333D01*
X82950000Y-65100000D01*
X82883333Y-65133333D01*
X82850000Y-65133333D01*
X82783333Y-65100000D01*
X82750000Y-65033333D01*
X82750000Y-64933333D01*
X82783333Y-64866666D01*
X83183333Y-64566666D02*
X83216666Y-64500000D01*
X83216666Y-64366666D01*
X83183333Y-64300000D01*
X83116666Y-64266666D01*
X83083333Y-64266666D01*
X83016666Y-64300000D01*
X82983333Y-64366666D01*
X82983333Y-64466666D01*
X82950000Y-64533333D01*
X82883333Y-64566666D01*
X82850000Y-64566666D01*
X82783333Y-64533333D01*
X82750000Y-64466666D01*
X82750000Y-64366666D01*
X82783333Y-64300000D01*
D11*
X83920000Y-63670000D02*
X85250000Y-63670000D01*
X83920000Y-65000000D02*
X83920000Y-63670000D01*
X86520000Y-63670000D02*
X89120000Y-63670000D01*
X86520000Y-66270000D02*
X86520000Y-63670000D01*
X83920000Y-66270000D02*
X86520000Y-66270000D01*
X89120000Y-63670000D02*
X89120000Y-84110000D01*
X83920000Y-66270000D02*
X83920000Y-84110000D01*
X83920000Y-84110000D02*
X89120000Y-84110000D01*
X77160000Y-81940000D02*
X77160000Y-82765000D01*
X77160000Y-65810000D02*
X78960000Y-65810000D01*
X77160000Y-64985000D02*
X77160000Y-65810000D01*
X72650000Y-62830000D02*
X73190000Y-62830000D01*
X72650000Y-61805000D02*
X72650000Y-62830000D01*
X71540000Y-61805000D02*
X72650000Y-61805000D01*
X71540000Y-85945000D02*
X71540000Y-61805000D01*
X72650000Y-85945000D02*
X71540000Y-85945000D01*
X72650000Y-84920000D02*
X72650000Y-85945000D01*
X73190000Y-84920000D02*
X72650000Y-84920000D01*
M02*
