G04 #@! TF.GenerationSoftware,KiCad,Pcbnew,5.1.6*
G04 #@! TF.CreationDate,2020-11-02T21:59:41+01:00*
G04 #@! TF.ProjectId,BL128128,424c3132-3831-4323-982e-6b696361645f,rev?*
G04 #@! TF.SameCoordinates,Original*
G04 #@! TF.FileFunction,Soldermask,Bot*
G04 #@! TF.FilePolarity,Negative*
%FSLAX46Y46*%
G04 Gerber Fmt 4.6, Leading zero omitted, Abs format (unit mm)*
G04 Created by KiCad (PCBNEW 5.1.6) date 2020-11-02 21:59:41*
%MOMM*%
%LPD*%
G01*
G04 APERTURE LIST*
%ADD10C,0.100000*%
G04 APERTURE END LIST*
D10*
G36*
X80318433Y-88834893D02*
G01*
X80408657Y-88852839D01*
X80514267Y-88896585D01*
X80663621Y-88958449D01*
X80663622Y-88958450D01*
X80893086Y-89111772D01*
X81088228Y-89306914D01*
X81190675Y-89460237D01*
X81241551Y-89536379D01*
X81347161Y-89791344D01*
X81401000Y-90062012D01*
X81401000Y-90337988D01*
X81347161Y-90608656D01*
X81241551Y-90863621D01*
X81241550Y-90863622D01*
X81088228Y-91093086D01*
X80893086Y-91288228D01*
X80739763Y-91390675D01*
X80663621Y-91441551D01*
X80514267Y-91503415D01*
X80408657Y-91547161D01*
X80318433Y-91565107D01*
X80137988Y-91601000D01*
X79862012Y-91601000D01*
X79681567Y-91565107D01*
X79591343Y-91547161D01*
X79485733Y-91503415D01*
X79336379Y-91441551D01*
X79260237Y-91390675D01*
X79106914Y-91288228D01*
X78911772Y-91093086D01*
X78758450Y-90863622D01*
X78758449Y-90863621D01*
X78652839Y-90608656D01*
X78599000Y-90337988D01*
X78599000Y-90062012D01*
X78652839Y-89791344D01*
X78758449Y-89536379D01*
X78809325Y-89460237D01*
X78911772Y-89306914D01*
X79106914Y-89111772D01*
X79336378Y-88958450D01*
X79336379Y-88958449D01*
X79485733Y-88896585D01*
X79591343Y-88852839D01*
X79681567Y-88834893D01*
X79862012Y-88799000D01*
X80137988Y-88799000D01*
X80318433Y-88834893D01*
G37*
G36*
X77051000Y-85781000D02*
G01*
X73349000Y-85781000D01*
X73349000Y-82999000D01*
X77051000Y-82999000D01*
X77051000Y-85781000D01*
G37*
G36*
X85363512Y-81883927D02*
G01*
X85512812Y-81913624D01*
X85676784Y-81981544D01*
X85824354Y-82080147D01*
X85949853Y-82205646D01*
X86048456Y-82353216D01*
X86116376Y-82517188D01*
X86151000Y-82691259D01*
X86151000Y-82868741D01*
X86116376Y-83042812D01*
X86048456Y-83206784D01*
X85949853Y-83354354D01*
X85824354Y-83479853D01*
X85676784Y-83578456D01*
X85512812Y-83646376D01*
X85363512Y-83676073D01*
X85338742Y-83681000D01*
X85161258Y-83681000D01*
X85136488Y-83676073D01*
X84987188Y-83646376D01*
X84823216Y-83578456D01*
X84675646Y-83479853D01*
X84550147Y-83354354D01*
X84451544Y-83206784D01*
X84383624Y-83042812D01*
X84349000Y-82868741D01*
X84349000Y-82691259D01*
X84383624Y-82517188D01*
X84451544Y-82353216D01*
X84550147Y-82205646D01*
X84675646Y-82080147D01*
X84823216Y-81981544D01*
X84987188Y-81913624D01*
X85136488Y-81883927D01*
X85161258Y-81879000D01*
X85338742Y-81879000D01*
X85363512Y-81883927D01*
G37*
G36*
X87903512Y-81883927D02*
G01*
X88052812Y-81913624D01*
X88216784Y-81981544D01*
X88364354Y-82080147D01*
X88489853Y-82205646D01*
X88588456Y-82353216D01*
X88656376Y-82517188D01*
X88691000Y-82691259D01*
X88691000Y-82868741D01*
X88656376Y-83042812D01*
X88588456Y-83206784D01*
X88489853Y-83354354D01*
X88364354Y-83479853D01*
X88216784Y-83578456D01*
X88052812Y-83646376D01*
X87903512Y-83676073D01*
X87878742Y-83681000D01*
X87701258Y-83681000D01*
X87676488Y-83676073D01*
X87527188Y-83646376D01*
X87363216Y-83578456D01*
X87215646Y-83479853D01*
X87090147Y-83354354D01*
X86991544Y-83206784D01*
X86923624Y-83042812D01*
X86889000Y-82868741D01*
X86889000Y-82691259D01*
X86923624Y-82517188D01*
X86991544Y-82353216D01*
X87090147Y-82205646D01*
X87215646Y-82080147D01*
X87363216Y-81981544D01*
X87527188Y-81913624D01*
X87676488Y-81883927D01*
X87701258Y-81879000D01*
X87878742Y-81879000D01*
X87903512Y-81883927D01*
G37*
G36*
X79051000Y-81756000D02*
G01*
X76949000Y-81756000D01*
X76949000Y-81044000D01*
X79051000Y-81044000D01*
X79051000Y-81756000D01*
G37*
G36*
X85363512Y-79343927D02*
G01*
X85512812Y-79373624D01*
X85676784Y-79441544D01*
X85824354Y-79540147D01*
X85949853Y-79665646D01*
X86048456Y-79813216D01*
X86116376Y-79977188D01*
X86151000Y-80151259D01*
X86151000Y-80328741D01*
X86116376Y-80502812D01*
X86048456Y-80666784D01*
X85949853Y-80814354D01*
X85824354Y-80939853D01*
X85676784Y-81038456D01*
X85512812Y-81106376D01*
X85363512Y-81136073D01*
X85338742Y-81141000D01*
X85161258Y-81141000D01*
X85136488Y-81136073D01*
X84987188Y-81106376D01*
X84823216Y-81038456D01*
X84675646Y-80939853D01*
X84550147Y-80814354D01*
X84451544Y-80666784D01*
X84383624Y-80502812D01*
X84349000Y-80328741D01*
X84349000Y-80151259D01*
X84383624Y-79977188D01*
X84451544Y-79813216D01*
X84550147Y-79665646D01*
X84675646Y-79540147D01*
X84823216Y-79441544D01*
X84987188Y-79373624D01*
X85136488Y-79343927D01*
X85161258Y-79339000D01*
X85338742Y-79339000D01*
X85363512Y-79343927D01*
G37*
G36*
X87903512Y-79343927D02*
G01*
X88052812Y-79373624D01*
X88216784Y-79441544D01*
X88364354Y-79540147D01*
X88489853Y-79665646D01*
X88588456Y-79813216D01*
X88656376Y-79977188D01*
X88691000Y-80151259D01*
X88691000Y-80328741D01*
X88656376Y-80502812D01*
X88588456Y-80666784D01*
X88489853Y-80814354D01*
X88364354Y-80939853D01*
X88216784Y-81038456D01*
X88052812Y-81106376D01*
X87903512Y-81136073D01*
X87878742Y-81141000D01*
X87701258Y-81141000D01*
X87676488Y-81136073D01*
X87527188Y-81106376D01*
X87363216Y-81038456D01*
X87215646Y-80939853D01*
X87090147Y-80814354D01*
X86991544Y-80666784D01*
X86923624Y-80502812D01*
X86889000Y-80328741D01*
X86889000Y-80151259D01*
X86923624Y-79977188D01*
X86991544Y-79813216D01*
X87090147Y-79665646D01*
X87215646Y-79540147D01*
X87363216Y-79441544D01*
X87527188Y-79373624D01*
X87676488Y-79343927D01*
X87701258Y-79339000D01*
X87878742Y-79339000D01*
X87903512Y-79343927D01*
G37*
G36*
X79051000Y-80756000D02*
G01*
X76949000Y-80756000D01*
X76949000Y-80044000D01*
X79051000Y-80044000D01*
X79051000Y-80756000D01*
G37*
G36*
X79051000Y-79756000D02*
G01*
X76949000Y-79756000D01*
X76949000Y-79044000D01*
X79051000Y-79044000D01*
X79051000Y-79756000D01*
G37*
G36*
X79051000Y-78756000D02*
G01*
X76949000Y-78756000D01*
X76949000Y-78044000D01*
X79051000Y-78044000D01*
X79051000Y-78756000D01*
G37*
G36*
X87903512Y-76803927D02*
G01*
X88052812Y-76833624D01*
X88216784Y-76901544D01*
X88364354Y-77000147D01*
X88489853Y-77125646D01*
X88588456Y-77273216D01*
X88656376Y-77437188D01*
X88691000Y-77611259D01*
X88691000Y-77788741D01*
X88656376Y-77962812D01*
X88588456Y-78126784D01*
X88489853Y-78274354D01*
X88364354Y-78399853D01*
X88216784Y-78498456D01*
X88052812Y-78566376D01*
X87903512Y-78596073D01*
X87878742Y-78601000D01*
X87701258Y-78601000D01*
X87676488Y-78596073D01*
X87527188Y-78566376D01*
X87363216Y-78498456D01*
X87215646Y-78399853D01*
X87090147Y-78274354D01*
X86991544Y-78126784D01*
X86923624Y-77962812D01*
X86889000Y-77788741D01*
X86889000Y-77611259D01*
X86923624Y-77437188D01*
X86991544Y-77273216D01*
X87090147Y-77125646D01*
X87215646Y-77000147D01*
X87363216Y-76901544D01*
X87527188Y-76833624D01*
X87676488Y-76803927D01*
X87701258Y-76799000D01*
X87878742Y-76799000D01*
X87903512Y-76803927D01*
G37*
G36*
X85363512Y-76803927D02*
G01*
X85512812Y-76833624D01*
X85676784Y-76901544D01*
X85824354Y-77000147D01*
X85949853Y-77125646D01*
X86048456Y-77273216D01*
X86116376Y-77437188D01*
X86151000Y-77611259D01*
X86151000Y-77788741D01*
X86116376Y-77962812D01*
X86048456Y-78126784D01*
X85949853Y-78274354D01*
X85824354Y-78399853D01*
X85676784Y-78498456D01*
X85512812Y-78566376D01*
X85363512Y-78596073D01*
X85338742Y-78601000D01*
X85161258Y-78601000D01*
X85136488Y-78596073D01*
X84987188Y-78566376D01*
X84823216Y-78498456D01*
X84675646Y-78399853D01*
X84550147Y-78274354D01*
X84451544Y-78126784D01*
X84383624Y-77962812D01*
X84349000Y-77788741D01*
X84349000Y-77611259D01*
X84383624Y-77437188D01*
X84451544Y-77273216D01*
X84550147Y-77125646D01*
X84675646Y-77000147D01*
X84823216Y-76901544D01*
X84987188Y-76833624D01*
X85136488Y-76803927D01*
X85161258Y-76799000D01*
X85338742Y-76799000D01*
X85363512Y-76803927D01*
G37*
G36*
X79051000Y-77756000D02*
G01*
X76949000Y-77756000D01*
X76949000Y-77044000D01*
X79051000Y-77044000D01*
X79051000Y-77756000D01*
G37*
G36*
X79051000Y-76756000D02*
G01*
X76949000Y-76756000D01*
X76949000Y-76044000D01*
X79051000Y-76044000D01*
X79051000Y-76756000D01*
G37*
G36*
X85363512Y-74263927D02*
G01*
X85512812Y-74293624D01*
X85676784Y-74361544D01*
X85824354Y-74460147D01*
X85949853Y-74585646D01*
X86048456Y-74733216D01*
X86116376Y-74897188D01*
X86151000Y-75071259D01*
X86151000Y-75248741D01*
X86116376Y-75422812D01*
X86048456Y-75586784D01*
X85949853Y-75734354D01*
X85824354Y-75859853D01*
X85676784Y-75958456D01*
X85512812Y-76026376D01*
X85363512Y-76056073D01*
X85338742Y-76061000D01*
X85161258Y-76061000D01*
X85136488Y-76056073D01*
X84987188Y-76026376D01*
X84823216Y-75958456D01*
X84675646Y-75859853D01*
X84550147Y-75734354D01*
X84451544Y-75586784D01*
X84383624Y-75422812D01*
X84349000Y-75248741D01*
X84349000Y-75071259D01*
X84383624Y-74897188D01*
X84451544Y-74733216D01*
X84550147Y-74585646D01*
X84675646Y-74460147D01*
X84823216Y-74361544D01*
X84987188Y-74293624D01*
X85136488Y-74263927D01*
X85161258Y-74259000D01*
X85338742Y-74259000D01*
X85363512Y-74263927D01*
G37*
G36*
X87903512Y-74263927D02*
G01*
X88052812Y-74293624D01*
X88216784Y-74361544D01*
X88364354Y-74460147D01*
X88489853Y-74585646D01*
X88588456Y-74733216D01*
X88656376Y-74897188D01*
X88691000Y-75071259D01*
X88691000Y-75248741D01*
X88656376Y-75422812D01*
X88588456Y-75586784D01*
X88489853Y-75734354D01*
X88364354Y-75859853D01*
X88216784Y-75958456D01*
X88052812Y-76026376D01*
X87903512Y-76056073D01*
X87878742Y-76061000D01*
X87701258Y-76061000D01*
X87676488Y-76056073D01*
X87527188Y-76026376D01*
X87363216Y-75958456D01*
X87215646Y-75859853D01*
X87090147Y-75734354D01*
X86991544Y-75586784D01*
X86923624Y-75422812D01*
X86889000Y-75248741D01*
X86889000Y-75071259D01*
X86923624Y-74897188D01*
X86991544Y-74733216D01*
X87090147Y-74585646D01*
X87215646Y-74460147D01*
X87363216Y-74361544D01*
X87527188Y-74293624D01*
X87676488Y-74263927D01*
X87701258Y-74259000D01*
X87878742Y-74259000D01*
X87903512Y-74263927D01*
G37*
G36*
X79051000Y-75756000D02*
G01*
X76949000Y-75756000D01*
X76949000Y-75044000D01*
X79051000Y-75044000D01*
X79051000Y-75756000D01*
G37*
G36*
X79051000Y-74756000D02*
G01*
X76949000Y-74756000D01*
X76949000Y-74044000D01*
X79051000Y-74044000D01*
X79051000Y-74756000D01*
G37*
G36*
X79051000Y-73756000D02*
G01*
X76949000Y-73756000D01*
X76949000Y-73044000D01*
X79051000Y-73044000D01*
X79051000Y-73756000D01*
G37*
G36*
X85363512Y-71723927D02*
G01*
X85512812Y-71753624D01*
X85676784Y-71821544D01*
X85824354Y-71920147D01*
X85949853Y-72045646D01*
X86048456Y-72193216D01*
X86116376Y-72357188D01*
X86151000Y-72531259D01*
X86151000Y-72708741D01*
X86116376Y-72882812D01*
X86048456Y-73046784D01*
X85949853Y-73194354D01*
X85824354Y-73319853D01*
X85676784Y-73418456D01*
X85512812Y-73486376D01*
X85363512Y-73516073D01*
X85338742Y-73521000D01*
X85161258Y-73521000D01*
X85136488Y-73516073D01*
X84987188Y-73486376D01*
X84823216Y-73418456D01*
X84675646Y-73319853D01*
X84550147Y-73194354D01*
X84451544Y-73046784D01*
X84383624Y-72882812D01*
X84349000Y-72708741D01*
X84349000Y-72531259D01*
X84383624Y-72357188D01*
X84451544Y-72193216D01*
X84550147Y-72045646D01*
X84675646Y-71920147D01*
X84823216Y-71821544D01*
X84987188Y-71753624D01*
X85136488Y-71723927D01*
X85161258Y-71719000D01*
X85338742Y-71719000D01*
X85363512Y-71723927D01*
G37*
G36*
X87903512Y-71723927D02*
G01*
X88052812Y-71753624D01*
X88216784Y-71821544D01*
X88364354Y-71920147D01*
X88489853Y-72045646D01*
X88588456Y-72193216D01*
X88656376Y-72357188D01*
X88691000Y-72531259D01*
X88691000Y-72708741D01*
X88656376Y-72882812D01*
X88588456Y-73046784D01*
X88489853Y-73194354D01*
X88364354Y-73319853D01*
X88216784Y-73418456D01*
X88052812Y-73486376D01*
X87903512Y-73516073D01*
X87878742Y-73521000D01*
X87701258Y-73521000D01*
X87676488Y-73516073D01*
X87527188Y-73486376D01*
X87363216Y-73418456D01*
X87215646Y-73319853D01*
X87090147Y-73194354D01*
X86991544Y-73046784D01*
X86923624Y-72882812D01*
X86889000Y-72708741D01*
X86889000Y-72531259D01*
X86923624Y-72357188D01*
X86991544Y-72193216D01*
X87090147Y-72045646D01*
X87215646Y-71920147D01*
X87363216Y-71821544D01*
X87527188Y-71753624D01*
X87676488Y-71723927D01*
X87701258Y-71719000D01*
X87878742Y-71719000D01*
X87903512Y-71723927D01*
G37*
G36*
X79051000Y-72756000D02*
G01*
X76949000Y-72756000D01*
X76949000Y-72044000D01*
X79051000Y-72044000D01*
X79051000Y-72756000D01*
G37*
G36*
X79051000Y-71756000D02*
G01*
X76949000Y-71756000D01*
X76949000Y-71044000D01*
X79051000Y-71044000D01*
X79051000Y-71756000D01*
G37*
G36*
X87903512Y-69183927D02*
G01*
X88052812Y-69213624D01*
X88216784Y-69281544D01*
X88364354Y-69380147D01*
X88489853Y-69505646D01*
X88588456Y-69653216D01*
X88656376Y-69817188D01*
X88691000Y-69991259D01*
X88691000Y-70168741D01*
X88656376Y-70342812D01*
X88588456Y-70506784D01*
X88489853Y-70654354D01*
X88364354Y-70779853D01*
X88216784Y-70878456D01*
X88052812Y-70946376D01*
X87903512Y-70976073D01*
X87878742Y-70981000D01*
X87701258Y-70981000D01*
X87676488Y-70976073D01*
X87527188Y-70946376D01*
X87363216Y-70878456D01*
X87215646Y-70779853D01*
X87090147Y-70654354D01*
X86991544Y-70506784D01*
X86923624Y-70342812D01*
X86889000Y-70168741D01*
X86889000Y-69991259D01*
X86923624Y-69817188D01*
X86991544Y-69653216D01*
X87090147Y-69505646D01*
X87215646Y-69380147D01*
X87363216Y-69281544D01*
X87527188Y-69213624D01*
X87676488Y-69183927D01*
X87701258Y-69179000D01*
X87878742Y-69179000D01*
X87903512Y-69183927D01*
G37*
G36*
X85363512Y-69183927D02*
G01*
X85512812Y-69213624D01*
X85676784Y-69281544D01*
X85824354Y-69380147D01*
X85949853Y-69505646D01*
X86048456Y-69653216D01*
X86116376Y-69817188D01*
X86151000Y-69991259D01*
X86151000Y-70168741D01*
X86116376Y-70342812D01*
X86048456Y-70506784D01*
X85949853Y-70654354D01*
X85824354Y-70779853D01*
X85676784Y-70878456D01*
X85512812Y-70946376D01*
X85363512Y-70976073D01*
X85338742Y-70981000D01*
X85161258Y-70981000D01*
X85136488Y-70976073D01*
X84987188Y-70946376D01*
X84823216Y-70878456D01*
X84675646Y-70779853D01*
X84550147Y-70654354D01*
X84451544Y-70506784D01*
X84383624Y-70342812D01*
X84349000Y-70168741D01*
X84349000Y-69991259D01*
X84383624Y-69817188D01*
X84451544Y-69653216D01*
X84550147Y-69505646D01*
X84675646Y-69380147D01*
X84823216Y-69281544D01*
X84987188Y-69213624D01*
X85136488Y-69183927D01*
X85161258Y-69179000D01*
X85338742Y-69179000D01*
X85363512Y-69183927D01*
G37*
G36*
X79051000Y-70756000D02*
G01*
X76949000Y-70756000D01*
X76949000Y-70044000D01*
X79051000Y-70044000D01*
X79051000Y-70756000D01*
G37*
G36*
X79051000Y-69756000D02*
G01*
X76949000Y-69756000D01*
X76949000Y-69044000D01*
X79051000Y-69044000D01*
X79051000Y-69756000D01*
G37*
G36*
X79051000Y-68756000D02*
G01*
X76949000Y-68756000D01*
X76949000Y-68044000D01*
X79051000Y-68044000D01*
X79051000Y-68756000D01*
G37*
G36*
X85363512Y-66643927D02*
G01*
X85512812Y-66673624D01*
X85676784Y-66741544D01*
X85824354Y-66840147D01*
X85949853Y-66965646D01*
X86048456Y-67113216D01*
X86116376Y-67277188D01*
X86151000Y-67451259D01*
X86151000Y-67628741D01*
X86116376Y-67802812D01*
X86048456Y-67966784D01*
X85949853Y-68114354D01*
X85824354Y-68239853D01*
X85676784Y-68338456D01*
X85512812Y-68406376D01*
X85363512Y-68436073D01*
X85338742Y-68441000D01*
X85161258Y-68441000D01*
X85136488Y-68436073D01*
X84987188Y-68406376D01*
X84823216Y-68338456D01*
X84675646Y-68239853D01*
X84550147Y-68114354D01*
X84451544Y-67966784D01*
X84383624Y-67802812D01*
X84349000Y-67628741D01*
X84349000Y-67451259D01*
X84383624Y-67277188D01*
X84451544Y-67113216D01*
X84550147Y-66965646D01*
X84675646Y-66840147D01*
X84823216Y-66741544D01*
X84987188Y-66673624D01*
X85136488Y-66643927D01*
X85161258Y-66639000D01*
X85338742Y-66639000D01*
X85363512Y-66643927D01*
G37*
G36*
X87903512Y-66643927D02*
G01*
X88052812Y-66673624D01*
X88216784Y-66741544D01*
X88364354Y-66840147D01*
X88489853Y-66965646D01*
X88588456Y-67113216D01*
X88656376Y-67277188D01*
X88691000Y-67451259D01*
X88691000Y-67628741D01*
X88656376Y-67802812D01*
X88588456Y-67966784D01*
X88489853Y-68114354D01*
X88364354Y-68239853D01*
X88216784Y-68338456D01*
X88052812Y-68406376D01*
X87903512Y-68436073D01*
X87878742Y-68441000D01*
X87701258Y-68441000D01*
X87676488Y-68436073D01*
X87527188Y-68406376D01*
X87363216Y-68338456D01*
X87215646Y-68239853D01*
X87090147Y-68114354D01*
X86991544Y-67966784D01*
X86923624Y-67802812D01*
X86889000Y-67628741D01*
X86889000Y-67451259D01*
X86923624Y-67277188D01*
X86991544Y-67113216D01*
X87090147Y-66965646D01*
X87215646Y-66840147D01*
X87363216Y-66741544D01*
X87527188Y-66673624D01*
X87676488Y-66643927D01*
X87701258Y-66639000D01*
X87878742Y-66639000D01*
X87903512Y-66643927D01*
G37*
G36*
X79051000Y-67756000D02*
G01*
X76949000Y-67756000D01*
X76949000Y-67044000D01*
X79051000Y-67044000D01*
X79051000Y-67756000D01*
G37*
G36*
X79051000Y-66756000D02*
G01*
X76949000Y-66756000D01*
X76949000Y-66044000D01*
X79051000Y-66044000D01*
X79051000Y-66756000D01*
G37*
G36*
X86151000Y-65901000D02*
G01*
X84349000Y-65901000D01*
X84349000Y-64099000D01*
X86151000Y-64099000D01*
X86151000Y-65901000D01*
G37*
G36*
X87903512Y-64103927D02*
G01*
X88052812Y-64133624D01*
X88216784Y-64201544D01*
X88364354Y-64300147D01*
X88489853Y-64425646D01*
X88588456Y-64573216D01*
X88656376Y-64737188D01*
X88691000Y-64911259D01*
X88691000Y-65088741D01*
X88656376Y-65262812D01*
X88588456Y-65426784D01*
X88489853Y-65574354D01*
X88364354Y-65699853D01*
X88216784Y-65798456D01*
X88052812Y-65866376D01*
X87903512Y-65896073D01*
X87878742Y-65901000D01*
X87701258Y-65901000D01*
X87676488Y-65896073D01*
X87527188Y-65866376D01*
X87363216Y-65798456D01*
X87215646Y-65699853D01*
X87090147Y-65574354D01*
X86991544Y-65426784D01*
X86923624Y-65262812D01*
X86889000Y-65088741D01*
X86889000Y-64911259D01*
X86923624Y-64737188D01*
X86991544Y-64573216D01*
X87090147Y-64425646D01*
X87215646Y-64300147D01*
X87363216Y-64201544D01*
X87527188Y-64133624D01*
X87676488Y-64103927D01*
X87701258Y-64099000D01*
X87878742Y-64099000D01*
X87903512Y-64103927D01*
G37*
G36*
X77051000Y-64801000D02*
G01*
X73349000Y-64801000D01*
X73349000Y-62019000D01*
X77051000Y-62019000D01*
X77051000Y-64801000D01*
G37*
G36*
X80318433Y-56234893D02*
G01*
X80408657Y-56252839D01*
X80514267Y-56296585D01*
X80663621Y-56358449D01*
X80663622Y-56358450D01*
X80893086Y-56511772D01*
X81088228Y-56706914D01*
X81190675Y-56860237D01*
X81241551Y-56936379D01*
X81347161Y-57191344D01*
X81401000Y-57462012D01*
X81401000Y-57737988D01*
X81347161Y-58008656D01*
X81241551Y-58263621D01*
X81241550Y-58263622D01*
X81088228Y-58493086D01*
X80893086Y-58688228D01*
X80739763Y-58790675D01*
X80663621Y-58841551D01*
X80514267Y-58903415D01*
X80408657Y-58947161D01*
X80318433Y-58965107D01*
X80137988Y-59001000D01*
X79862012Y-59001000D01*
X79681567Y-58965107D01*
X79591343Y-58947161D01*
X79485733Y-58903415D01*
X79336379Y-58841551D01*
X79260237Y-58790675D01*
X79106914Y-58688228D01*
X78911772Y-58493086D01*
X78758450Y-58263622D01*
X78758449Y-58263621D01*
X78652839Y-58008656D01*
X78599000Y-57737988D01*
X78599000Y-57462012D01*
X78652839Y-57191344D01*
X78758449Y-56936379D01*
X78809325Y-56860237D01*
X78911772Y-56706914D01*
X79106914Y-56511772D01*
X79336378Y-56358450D01*
X79336379Y-56358449D01*
X79485733Y-56296585D01*
X79591343Y-56252839D01*
X79681567Y-56234893D01*
X79862012Y-56199000D01*
X80137988Y-56199000D01*
X80318433Y-56234893D01*
G37*
M02*
