G04 #@! TF.GenerationSoftware,KiCad,Pcbnew,5.1.6*
G04 #@! TF.CreationDate,2020-11-02T21:59:41+01:00*
G04 #@! TF.ProjectId,BL128128,424c3132-3831-4323-982e-6b696361645f,rev?*
G04 #@! TF.SameCoordinates,Original*
G04 #@! TF.FileFunction,Copper,L2,Bot*
G04 #@! TF.FilePolarity,Positive*
%FSLAX46Y46*%
G04 Gerber Fmt 4.6, Leading zero omitted, Abs format (unit mm)*
G04 Created by KiCad (PCBNEW 5.1.6) date 2020-11-02 21:59:41*
%MOMM*%
%LPD*%
G01*
G04 APERTURE LIST*
G04 #@! TA.AperFunction,SMDPad,CuDef*
%ADD10R,3.600000X2.680000*%
G04 #@! TD*
G04 #@! TA.AperFunction,SMDPad,CuDef*
%ADD11R,2.000000X0.610000*%
G04 #@! TD*
G04 #@! TA.AperFunction,ComponentPad*
%ADD12R,1.700000X1.700000*%
G04 #@! TD*
G04 #@! TA.AperFunction,ComponentPad*
%ADD13O,1.700000X1.700000*%
G04 #@! TD*
G04 #@! TA.AperFunction,ViaPad*
%ADD14C,0.800000*%
G04 #@! TD*
G04 #@! TA.AperFunction,Conductor*
%ADD15C,0.400000*%
G04 #@! TD*
G04 APERTURE END LIST*
D10*
X75200000Y-63410000D03*
X75200000Y-84390000D03*
D11*
X78000000Y-66400000D03*
X78000000Y-67400000D03*
X78000000Y-68400000D03*
X78000000Y-69400000D03*
X78000000Y-70400000D03*
X78000000Y-71400000D03*
X78000000Y-72400000D03*
X78000000Y-73400000D03*
X78000000Y-74400000D03*
X78000000Y-75400000D03*
X78000000Y-76400000D03*
X78000000Y-77400000D03*
X78000000Y-78400000D03*
X78000000Y-79400000D03*
X78000000Y-80400000D03*
X78000000Y-81400000D03*
D12*
X85250000Y-65000000D03*
D13*
X87790000Y-65000000D03*
X85250000Y-67540000D03*
X87790000Y-67540000D03*
X85250000Y-70080000D03*
X87790000Y-70080000D03*
X85250000Y-72620000D03*
X87790000Y-72620000D03*
X85250000Y-75160000D03*
X87790000Y-75160000D03*
X85250000Y-77700000D03*
X87790000Y-77700000D03*
X85250000Y-80240000D03*
X87790000Y-80240000D03*
X85250000Y-82780000D03*
X87790000Y-82780000D03*
D14*
X81450000Y-67400000D03*
X81450000Y-73400000D03*
X81450000Y-75400000D03*
X81450000Y-77400000D03*
X81450000Y-79400000D03*
X81450000Y-81400000D03*
X81450000Y-69400000D03*
X81450000Y-71400000D03*
D15*
X78000000Y-66400000D02*
X81500000Y-66400000D01*
X82900000Y-65000000D02*
X85250000Y-65000000D01*
X81500000Y-66400000D02*
X82900000Y-65000000D01*
X86940001Y-65849999D02*
X87790000Y-65000000D01*
X86500001Y-66289999D02*
X86940001Y-65849999D01*
X82560001Y-66289999D02*
X86500001Y-66289999D01*
X81450000Y-67400000D02*
X82560001Y-66289999D01*
X78000000Y-67400000D02*
X81450000Y-67400000D01*
X84047919Y-67540000D02*
X85250000Y-67540000D01*
X82461458Y-67540000D02*
X84047919Y-67540000D01*
X81601458Y-68400000D02*
X82461458Y-67540000D01*
X78000000Y-68400000D02*
X81601458Y-68400000D01*
X86539999Y-73870001D02*
X86940001Y-73469999D01*
X86940001Y-73469999D02*
X87790000Y-72620000D01*
X81920001Y-73870001D02*
X86539999Y-73870001D01*
X81450000Y-73400000D02*
X81920001Y-73870001D01*
X78000000Y-73400000D02*
X81450000Y-73400000D01*
X81634002Y-74400000D02*
X82394002Y-75160000D01*
X84047919Y-75160000D02*
X85250000Y-75160000D01*
X82394002Y-75160000D02*
X84047919Y-75160000D01*
X78000000Y-74400000D02*
X81634002Y-74400000D01*
X86940001Y-76009999D02*
X87790000Y-75160000D01*
X86539999Y-76410001D02*
X86940001Y-76009999D01*
X82460001Y-76410001D02*
X86539999Y-76410001D01*
X81450000Y-75400000D02*
X82460001Y-76410001D01*
X78000000Y-75400000D02*
X81450000Y-75400000D01*
X84047919Y-77700000D02*
X85250000Y-77700000D01*
X82901458Y-77700000D02*
X84047919Y-77700000D01*
X81601458Y-76400000D02*
X82901458Y-77700000D01*
X78000000Y-76400000D02*
X81601458Y-76400000D01*
X86940001Y-78549999D02*
X87790000Y-77700000D01*
X86539999Y-78950001D02*
X86940001Y-78549999D01*
X83000001Y-78950001D02*
X86539999Y-78950001D01*
X81450000Y-77400000D02*
X83000001Y-78950001D01*
X78000000Y-77400000D02*
X81450000Y-77400000D01*
X84047919Y-80240000D02*
X85250000Y-80240000D01*
X81601458Y-78400000D02*
X83441458Y-80240000D01*
X83441458Y-80240000D02*
X84047919Y-80240000D01*
X78000000Y-78400000D02*
X81601458Y-78400000D01*
X86940001Y-81089999D02*
X87790000Y-80240000D01*
X86539999Y-81490001D02*
X86940001Y-81089999D01*
X83540001Y-81490001D02*
X86539999Y-81490001D01*
X81450000Y-79400000D02*
X83540001Y-81490001D01*
X78000000Y-79400000D02*
X81450000Y-79400000D01*
X84047919Y-82780000D02*
X85250000Y-82780000D01*
X83981458Y-82780000D02*
X84047919Y-82780000D01*
X81601458Y-80400000D02*
X83981458Y-82780000D01*
X78000000Y-80400000D02*
X81601458Y-80400000D01*
X86940001Y-83629999D02*
X87790000Y-82780000D01*
X84080001Y-84030001D02*
X86539999Y-84030001D01*
X86539999Y-84030001D02*
X86940001Y-83629999D01*
X81450000Y-81400000D02*
X84080001Y-84030001D01*
X78000000Y-81400000D02*
X81450000Y-81400000D01*
X86940001Y-68389999D02*
X87790000Y-67540000D01*
X86500001Y-68829999D02*
X86940001Y-68389999D01*
X82020001Y-68829999D02*
X86500001Y-68829999D01*
X81450000Y-69400000D02*
X82020001Y-68829999D01*
X78000000Y-69400000D02*
X81450000Y-69400000D01*
X84930000Y-70400000D02*
X85250000Y-70080000D01*
X78000000Y-70400000D02*
X84930000Y-70400000D01*
X86940001Y-70929999D02*
X87790000Y-70080000D01*
X86500001Y-71369999D02*
X86940001Y-70929999D01*
X84649999Y-71369999D02*
X86500001Y-71369999D01*
X84619998Y-71400000D02*
X84649999Y-71369999D01*
X81450000Y-71400000D02*
X84619998Y-71400000D01*
X78000000Y-71400000D02*
X81450000Y-71400000D01*
X85030000Y-72400000D02*
X85250000Y-72620000D01*
X78000000Y-72400000D02*
X85030000Y-72400000D01*
M02*
